<svg width="98" height="29" viewBox="0 0 98 29" fill="none" xmlns="http://www.w3.org/2000/svg">
<path fill-rule="evenodd" clip-rule="evenodd" d="M1.87312 6.51566C1.01006 7.84411 4.42417 8.67574 4.17097 10.231C3.7762 12.6611 3.08194 15.4314 2.80968 16.8652C2.53743 18.2152 0.321246 18.5203 0.0380977 19.865C-0.182431 20.9045 1.16525 21.531 2.25156 21.9684C4.51946 22.881 2.5701 26.51 5.24639 27.4469C8.62784 28.6295 10.8821 25.8889 14.4514 26.2237C18.6034 26.6126 23.4659 28.751 27.5852 28.1138C29.9565 27.7466 31.4431 25.3246 32.6165 23.2536C33.191 22.2384 31.6718 21.4121 31.9794 20.2835C32.2734 19.2035 35.0042 19.0982 35.0042 17.9776C35.0042 16.6438 32.6247 16.3575 32.3143 15.0615C31.9113 13.382 33.4033 11.6837 32.4259 9.66128C30.7107 6.18894 36.0551 0.810331 28.1923 2.06048C25.3989 2.506 22.0257 5.86223 19.2895 5.1305C17.8247 4.75789 23.1201 0.942636 20.079 0.197407C15.418 -0.944738 4.08385 3.09462 1.87312 6.51566Z" fill="white"/>
<path fill-rule="evenodd" clip-rule="evenodd" d="M2.26258 19.0076C2.61107 18.2678 7.02709 14.8981 11.0266 11.9064C12.7962 10.5779 15.8156 16.2697 18.0073 15.8998C19.4611 15.6595 20.7761 7.97231 23.8499 9.98929C27.9882 12.7164 34.8736 17.8196 32.3634 18.5378C27.5417 19.9041 22.7718 21.2703 17.1687 21.6159C15.8673 21.6969 15.0369 21.7564 15.2629 20.2821C15.4099 19.3101 15.4861 17.9627 13.5667 18.041C8.80221 18.2354 0.607247 22.507 2.2653 18.9941" fill="#008837"/>
<path fill-rule="evenodd" clip-rule="evenodd" d="M31.0952 21.3896C31.1414 23.2797 30.0579 25.7098 28.7646 26.2498C24.904 27.7106 20.3546 24.8782 16.2135 24.9403C12.0725 25.0024 11.0107 26.4604 7.07928 25.7908C5.82417 25.5856 4.58812 24.8944 4.03271 23.5686C3.07437 21.2843 3.53448 21.5651 5.57642 21.0197C7.99407 20.3744 10.8419 19.1296 13.0662 19.5374C13.7278 19.7777 12.4128 22.4751 13.8503 22.3293C18.8 22.1835 23.7633 22.0863 28.702 20.7092C29.7393 20.4203 31.0734 20.0315 31.106 21.3869" fill="#005BBF"/>
<path fill-rule="evenodd" clip-rule="evenodd" d="M4.18505 5.79512C5.59262 3.84294 13.8856 1.68826 18.5875 1.87457C20.6322 1.95557 15.7642 6.31624 17.8905 6.79416C19.9542 7.25588 25.5137 3.86185 27.4468 3.74844C29.0231 3.65394 31.4517 4.32086 30.6894 7.35308C30.3981 8.51413 31.1413 9.08655 31.4462 10.6823C32.2794 15.0349 30.0087 13.2393 28.2826 11.9001C26.8696 10.8011 25.4484 9.67788 24.5037 9.04605C21.4163 7.02097 18.4977 13.5363 17.0465 13.7712C14.8548 14.1412 12.2657 9.29986 10.4905 10.6283C8.40233 12.5022 10.6267 10.3394 5.81587 14.7055C3.74671 16.5955 3.7086 15.1591 4.27489 13.1988C4.69145 11.7543 5.12706 11.0927 5.25775 9.46457C5.33942 8.45203 3.59153 6.61865 4.18777 5.78972" fill="#4DBCD7"/>
<path fill-rule="evenodd" clip-rule="evenodd" d="M11.4619 4.16797C12.9811 4.16797 14.68 5.32901 14.68 6.59806C14.68 7.86711 12.8532 9.02816 11.3313 9.02816C10.6599 9.01679 10.0204 8.74228 9.5526 8.26464C9.08477 7.78701 8.82664 7.1451 8.83465 6.47926C8.83465 5.21291 9.94274 4.18147 11.4619 4.18147" fill="white"/>
<path fill-rule="evenodd" clip-rule="evenodd" d="M13.9425 6.60947C13.9425 7.74351 12.9297 8.66425 11.6773 8.66425C10.4249 8.66425 9.41211 7.74351 9.41211 6.60947C9.41211 5.47542 10.4249 4.55469 11.6773 4.55469C12.9297 4.55469 13.9425 5.47542 13.9425 6.60947Z" fill="#FFE501"/>
<path fill-rule="evenodd" clip-rule="evenodd" d="M77.5581 5.22656V7.23274H87.4955L77.5581 13.335V15.3115H96.9592V13.3053H87.3757L96.9592 7.26244V5.22656H77.5581Z" fill="#005BBF"/>
<path fill-rule="evenodd" clip-rule="evenodd" d="M57.7461 15.3115H75.8295V13.4079H65.7423V11.0966H75.5136V9.33883H65.7423V7.13014H75.8295V5.22656H57.7461V15.3115Z" fill="#005BBF"/>
<path fill-rule="evenodd" clip-rule="evenodd" d="M37.3755 5.22656V7.23274H42.7635V15.3115H50.7597V7.23274H56.2048V5.22656H37.3755Z" fill="#005BBF"/>
<path fill-rule="evenodd" clip-rule="evenodd" d="M66.0066 21.0619C66.0066 21.5803 65.5492 21.9853 64.6453 22.2634C63.7414 22.5415 62.4128 22.6819 60.6976 22.6819C58.9823 22.6819 57.6455 22.5442 56.7308 22.2661C55.816 21.988 55.3559 21.6019 55.3559 21.0619V19.89C55.3559 19.368 55.8151 18.9675 56.7335 18.6885C57.6519 18.4095 58.9742 18.2709 60.7003 18.2727C62.4137 18.2727 63.7269 18.4122 64.6398 18.6912C65.5519 18.9612 66.0011 19.3716 66.0011 19.8927L66.0066 21.0619ZM58.1111 19.9818V20.9728C58.1111 21.2995 58.3153 21.5425 58.7237 21.691C59.3585 21.8714 60.0188 21.948 60.6785 21.9178C61.3434 21.9479 62.0089 21.8723 62.6496 21.6937C63.0608 21.5452 63.2677 21.3022 63.2677 20.9728V19.9818C63.2677 19.6524 63.0608 19.4094 62.6496 19.2609C62.0089 19.0822 61.3434 19.0066 60.6785 19.0368C60.0188 19.0065 59.3585 19.0831 58.7237 19.2636C58.3126 19.4148 58.1111 19.6551 58.1111 19.9818ZM47.3378 22.6819V19.0206H43.3847V18.2646H54.0191V19.0206H50.0958V22.6819H47.3378ZM67.8062 18.2619H70.5615V20.962C70.5615 21.2887 70.7657 21.529 71.174 21.6802C71.8089 21.8607 72.4691 21.9374 73.1289 21.907C73.7938 21.9377 74.4593 21.862 75.1 21.6829C75.5138 21.5335 75.7207 21.2932 75.7207 20.962V18.2619H78.4569V21.07C78.4569 21.592 78.0032 21.9925 77.0957 22.2715C76.1881 22.5505 74.8749 22.69 73.1561 22.69C71.4282 22.69 70.1059 22.5514 69.1893 22.2742C68.2727 21.997 67.8135 21.5965 67.8117 21.0727L67.8062 18.2619ZM82.99 20.1762H86.5131C86.867 20.1762 88.2256 20.1762 88.2256 19.6146C88.2256 19.053 86.9841 18.9909 86.6383 18.9909H82.99V20.1762ZM80.2675 22.6873V18.2673H87.0249C89.7175 18.2673 90.6269 19.0179 90.6269 19.5255C90.6269 20.0331 90.1177 20.3491 89.5732 20.4868C90.4626 20.7658 90.9073 21.1627 90.9073 21.6775V22.7008H88.1847V21.7369C88.1702 21.4255 87.9642 21.1969 87.5667 21.0511C87.1224 20.9386 86.6631 20.8958 86.2054 20.9242H82.99V22.6954L80.2675 22.6873ZM37.3433 17.0117H97.0304V23.9888H37.3433V17.0117Z" fill="#005BBF"/>
</svg>
