<svg width="42" height="37" viewBox="0 0 42 37" fill="none" xmlns="http://www.w3.org/2000/svg">
<path d="M39.7004 13.1085L35.8751 12.0836L36.1894 10.9109C36.2978 10.506 36.0558 10.097 35.6579 9.9904C35.2531 9.88192 34.8441 10.124 34.7375 10.5218L34.4251 11.6876L29.0921 10.2586L29.7692 7.73171C29.8777 7.32685 29.6357 6.91785 29.2378 6.81124L19.1652 4.11229C18.7603 4.00381 18.3513 4.24585 18.2447 4.64373L17.5658 7.17758L12.2328 5.74862L12.547 4.57592C12.6555 4.17107 12.4135 3.76206 12.0156 3.65545C11.6177 3.54884 11.2017 3.78901 11.0951 4.18689L10.7827 5.3526L6.95055 4.32577C6.54569 4.21729 6.13669 4.45932 6.03008 4.8572L0.304871 26.224C0.19639 26.6288 0.438427 27.0378 0.836306 27.1444L33.581 35.9184C33.9859 36.0268 34.3949 35.7848 34.5015 35.3869L40.2248 14.0271C40.3384 13.6311 40.0982 13.2151 39.7004 13.1085ZM19.5021 5.75872L28.1158 8.06676L27.6314 9.87466L19.0177 7.56662L19.5021 5.75872ZM33.2422 34.2789L1.95641 25.8959L7.29258 5.98104L38.5854 14.3659L33.2492 34.2808L33.2422 34.2789Z" fill="#293342"/>
</svg>
