<svg width="42" height="30" viewBox="0 0 42 30" fill="none" xmlns="http://www.w3.org/2000/svg">
<path d="M17.6002 29.1499H17.7502V28.9999V27.9199V27.7699H17.6002H3.09591L5.22355 25.7487L5.22358 25.7487L5.2263 25.746C6.0829 24.8894 7.20529 23.6734 8.59277 22.0991L8.59332 22.0985C10.2215 20.23 11.4788 18.6521 12.3634 17.3656C13.3826 15.9171 14.3202 14.2557 15.1767 12.3823L15.1767 12.3822C16.0095 10.5555 16.4302 8.88064 16.4302 7.35993C16.4302 5.61244 15.7872 4.03075 14.5115 2.61935L14.5105 2.61828C13.2219 1.21998 11.3907 0.529932 9.04024 0.529932C7.24566 0.529932 5.60065 1.10179 4.1092 2.24072C2.6067 3.38808 1.73549 5.00003 1.49128 7.06229L1.47673 7.1851L1.59452 7.22279L2.59452 7.54279L2.76124 7.59615L2.78842 7.42322C3.07713 5.58597 3.82158 4.22462 5.01045 3.31977C6.23901 2.40507 7.581 1.94993 9.04024 1.94993C10.9289 1.94993 12.3642 2.51266 13.3691 3.6207L13.3691 3.62071L13.3704 3.6221C14.4111 4.74086 14.9302 6.06431 14.9302 7.59993C14.9302 8.82569 14.5778 10.258 13.8627 11.9L13.8622 11.9011C13.1725 13.5193 12.3773 14.9768 11.4771 16.2742C10.5477 17.6019 9.35138 19.1175 7.88731 20.8212C6.39469 22.5004 5.22273 23.7922 4.371 24.6971L4.37091 24.6972C3.54667 25.5746 2.46869 26.6527 1.13635 27.9317L1.09023 27.976V28.0399V28.9999V29.1499H1.24023H17.6002ZM37.2729 27.5893L37.273 27.5892C38.6305 26.3131 39.5894 24.5934 40.1551 22.4388C40.7194 20.3428 41.0002 17.8624 41.0002 14.9999C41.0002 9.06785 39.7727 4.88209 37.2745 2.49208C35.9371 1.18239 34.2451 0.529932 32.2102 0.529932C30.7079 0.529932 29.3971 0.858354 28.2835 1.52103C27.1699 2.18372 26.2622 3.17553 25.5581 4.48889C24.1288 7.13191 23.4202 10.6392 23.4202 14.9999C23.4202 19.3875 24.1422 22.8958 25.5992 25.5129C26.3299 26.8256 27.2541 27.8167 28.3739 28.479C29.4937 29.1414 30.8009 29.4699 32.2902 29.4699C34.2715 29.4699 35.9359 28.8444 37.2729 27.5893ZM26.7822 24.6886C25.5457 22.3998 24.9202 19.1749 24.9202 14.9999C24.9202 10.5957 25.5398 7.31662 26.761 5.14341C27.3703 4.05908 28.128 3.25254 29.0318 2.71644C29.9354 2.18043 30.9931 1.90993 32.2102 1.90993C34.6484 1.90993 36.469 2.98317 37.6896 5.14371C38.9173 7.31682 39.5402 10.5958 39.5402 14.9999C39.5402 19.4042 38.924 22.6835 37.7093 24.8568C37.1032 25.9411 36.3496 26.7476 35.4509 27.2836C34.5523 27.8195 33.5005 28.0899 32.2902 28.0899C31.0609 28.0899 29.9923 27.8058 29.079 27.2423C28.1653 26.6785 27.3988 25.83 26.7822 24.6886Z" fill="#293342" stroke="#293342" stroke-width="0.3"/>
</svg>
