<svg width="38" height="38" viewBox="0 0 38 38" fill="none" xmlns="http://www.w3.org/2000/svg">
<g clip-path="url(#clip0)">
<path d="M18.2316 4.84288L18.2316 4.84288L15.0609 8.01366C14.939 8.13556 14.7791 8.19649 14.6196 8.19649C14.46 8.19649 14.3001 8.13557 14.1783 8.01374L11.0074 4.84304C10.466 4.30173 10.1678 3.5817 10.1678 2.81624C10.1678 2.05062 10.466 1.33074 11.0074 0.789513L18.2316 4.84288ZM18.2316 4.84288C19.3488 3.72521 19.3487 1.90696 18.2316 0.789591C17.6904 0.248287 16.9705 -0.05 16.2049 -0.05C15.6326 -0.05 15.0854 0.116818 14.6195 0.427434C14.1535 0.116747 13.6064 -0.05 13.034 -0.05C12.2685 -0.05 11.5486 0.248284 11.0074 0.789509L18.2316 4.84288ZM14.6196 6.68981L11.89 3.96044C11.89 3.96044 11.89 3.96044 11.89 3.96044C11.5843 3.65476 11.4161 3.24858 11.4161 2.81631C11.4161 2.38403 11.5842 1.97786 11.8899 1.67218L11.89 1.67217C12.1956 1.3665 12.6017 1.19824 13.034 1.19824C13.4663 1.19824 13.8725 1.36649 14.1783 1.67226C14.2953 1.78925 14.4541 1.855 14.6196 1.855C14.7852 1.855 14.9439 1.78925 15.0609 1.67217L14.6196 6.68981ZM14.6196 6.68981L17.3488 3.96045C17.9795 3.32959 17.9796 2.30295 17.3489 1.67218L17.3842 1.63682L17.3488 1.67217C17.0432 1.36649 16.6372 1.19824 16.2049 1.19824C15.7727 1.19824 15.3665 1.36649 15.0609 1.67217L14.6196 6.68981Z" fill="#293342" stroke="#293342" stroke-width="0.1"/>
<path d="M23.5352 9.49018L23.5352 9.49018L21.95 11.0756C21.833 11.1927 21.6742 11.2585 21.5087 11.2585C21.3431 11.2585 21.1844 11.1927 21.0674 11.0757L19.4817 9.49026L19.4817 9.49026L19.517 9.4549L23.5352 9.49018ZM23.5352 9.49018C24.2155 8.80967 24.2155 7.70259 23.5352 7.02236C23.2057 6.69265 22.7673 6.51104 22.3011 6.51104M23.5352 9.49018L22.3011 6.51104M22.3011 6.51104C22.0211 6.51104 21.751 6.57662 21.5085 6.70053M22.3011 6.51104L21.5085 6.70053M21.5085 6.70053C21.2658 6.57662 20.9957 6.51104 20.7157 6.51104C20.2495 6.51104 19.811 6.69272 19.4817 7.0222C19.4817 7.0222 19.4817 7.02221 19.4817 7.02221L21.5085 6.70053ZM21.0673 7.90494L21.0673 7.90496C21.1844 8.02193 21.3431 8.08769 21.5085 8.08769H21.5088H21.5088C21.6744 8.08761 21.8331 8.02178 21.95 7.90471C22.0438 7.81085 22.1683 7.75928 22.301 7.75928C22.4338 7.75928 22.5584 7.81092 22.6523 7.90493L22.6523 7.90495C22.8461 8.09863 22.846 8.41394 22.6523 8.60782C22.6523 8.60782 22.6523 8.60783 22.6523 8.60783L21.5085 9.7518L20.3643 8.60774C20.3643 8.60774 20.3643 8.60774 20.3643 8.60774C20.2703 8.51381 20.2187 8.38916 20.2187 8.25627C20.2187 8.12338 20.2703 7.99872 20.3643 7.90472C20.4582 7.81085 20.5828 7.7592 20.7156 7.7592C20.8485 7.7592 20.9733 7.81092 21.0673 7.90494Z" fill="#293342" stroke="#293342" stroke-width="0.1"/>
<mask id="path-3-outside-1" maskUnits="userSpaceOnUse" x="3.62354" y="8.24683" width="30" height="30" fill="black">
<rect fill="white" x="3.62354" y="8.24683" width="30" height="30"/>
<path d="M32.8024 9.24683C32.66 9.24683 29.2965 9.26716 27.5253 11.0385L23.9659 14.5978L6.95995 10.3468C6.95587 10.3458 6.95164 10.3453 6.94755 10.3444C6.93664 10.3419 6.92573 10.3397 6.91475 10.3379C6.90644 10.3365 6.89812 10.3353 6.88989 10.3344C6.88002 10.3332 6.87014 10.3323 6.8602 10.3316C6.851 10.3309 6.84179 10.3305 6.83259 10.3303C6.82331 10.3301 6.81403 10.3302 6.80476 10.3305C6.79548 10.3308 6.7862 10.3312 6.77693 10.3318C6.76735 10.3326 6.75778 10.3337 6.7482 10.3349C6.73974 10.336 6.73128 10.337 6.72304 10.3385C6.71228 10.3404 6.70167 10.3427 6.69098 10.3451C6.68415 10.3467 6.6774 10.3482 6.67064 10.3501C6.65862 10.3533 6.64682 10.3571 6.63502 10.3611C6.62982 10.3629 6.62455 10.3646 6.61936 10.3666C6.60682 10.3714 6.5945 10.3766 6.58217 10.3822C6.5778 10.3842 6.57342 10.3862 6.56911 10.3883C6.55701 10.3942 6.54521 10.4006 6.53356 10.4074C6.52896 10.4101 6.52428 10.4127 6.51983 10.4155C6.50929 10.422 6.49898 10.4289 6.48881 10.4361C6.48302 10.4402 6.47738 10.4443 6.47174 10.4486C6.46328 10.4551 6.45496 10.4619 6.44687 10.4688C6.43982 10.4749 6.43299 10.4812 6.42624 10.4875C6.42253 10.491 6.41852 10.4941 6.41489 10.4978L4.79127 12.1212C4.78853 12.124 4.78623 12.127 4.78355 12.1298C4.77621 12.1374 4.76916 12.1452 4.76218 12.1533C4.75572 12.1608 4.74949 12.1684 4.74348 12.1762C4.74088 12.1795 4.73798 12.1826 4.73546 12.186C4.73271 12.1897 4.73041 12.1937 4.72774 12.1975C4.72143 12.2065 4.71535 12.2157 4.70956 12.225C4.70518 12.2321 4.70095 12.2392 4.69694 12.2464C4.69175 12.2557 4.68677 12.265 4.68217 12.2745C4.67831 12.2824 4.6746 12.2902 4.67111 12.2983C4.66725 12.3072 4.66362 12.3162 4.6602 12.3253C4.65694 12.334 4.65375 12.3429 4.65092 12.3518C4.64818 12.3604 4.64566 12.3689 4.64335 12.3775C4.64076 12.3871 4.63838 12.3967 4.6363 12.4063C4.63452 12.4146 4.63296 12.4229 4.63155 12.4313C4.62992 12.4411 4.62844 12.451 4.62732 12.4609C4.62636 12.4694 4.62562 12.4779 4.62502 12.4864C4.62435 12.4961 4.62384 12.5058 4.62361 12.5154C4.62346 12.5244 4.62354 12.5333 4.62376 12.5423C4.62406 12.5515 4.62443 12.5606 4.6251 12.5698C4.62576 12.5793 4.6268 12.5888 4.62792 12.5982C4.62903 12.6067 4.63014 12.6152 4.63163 12.6236C4.63326 12.6335 4.63526 12.6434 4.63757 12.6532C4.63927 12.6612 4.6412 12.6691 4.64335 12.677C4.64603 12.6869 4.64907 12.6968 4.65233 12.7066C4.65486 12.7144 4.65746 12.7221 4.66042 12.7298C4.66399 12.7392 4.66785 12.7486 4.67193 12.7579C4.67534 12.7658 4.67905 12.7737 4.68284 12.7815C4.68707 12.79 4.6916 12.7985 4.69627 12.8069C4.70087 12.8153 4.70577 12.8235 4.71082 12.8316C4.7155 12.8391 4.72039 12.8464 4.72537 12.8537C4.73138 12.8623 4.73761 12.8708 4.74407 12.8792C4.74912 12.8857 4.75439 12.8922 4.7598 12.8985C4.76693 12.9069 4.7742 12.915 4.78185 12.923C4.78504 12.9263 4.78786 12.9299 4.79112 12.9332C4.79409 12.9362 4.79743 12.9387 4.8004 12.9416C4.8076 12.9484 4.81495 12.9551 4.82252 12.9616C4.83046 12.9685 4.83855 12.9751 4.84671 12.9814C4.84983 12.9838 4.85265 12.9866 4.85584 12.9889L16.7692 21.7943L10.996 27.5675L8.08518 26.597C8.07947 26.595 8.07375 26.5939 8.06804 26.5922C8.05735 26.589 8.04659 26.5858 8.03568 26.5832C8.02633 26.581 8.01697 26.5794 8.00755 26.5776C7.99887 26.576 7.99033 26.5743 7.98165 26.5732C7.97074 26.5717 7.9599 26.5707 7.94906 26.5698C7.94157 26.5692 7.93422 26.5685 7.92672 26.5683C7.91529 26.5678 7.90394 26.5679 7.89251 26.5681C7.88531 26.5683 7.87826 26.5683 7.87106 26.5687C7.85978 26.5694 7.84857 26.5705 7.83736 26.5718C7.82994 26.5727 7.8226 26.5735 7.81525 26.5746C7.80434 26.5763 7.79358 26.5785 7.78281 26.5809C7.77524 26.5825 7.76782 26.5841 7.7604 26.5859C7.74949 26.5887 7.73888 26.5921 7.72826 26.5955C7.72114 26.5978 7.71409 26.5999 7.70704 26.6025C7.69568 26.6067 7.68447 26.6114 7.67342 26.6163C7.6674 26.6189 7.66154 26.6214 7.6556 26.6242C7.64299 26.6303 7.63081 26.637 7.61857 26.644C7.61523 26.6459 7.61167 26.6474 7.60833 26.6494L7.60083 26.6539C7.59986 26.6545 7.5989 26.655 7.59801 26.6556L4.90705 28.2702C4.90564 28.271 4.90431 28.2718 4.90297 28.2726L4.90201 28.2732C4.90052 28.2741 4.89934 28.2751 4.89785 28.276C4.88323 28.285 4.86883 28.2945 4.85495 28.3048C4.8505 28.3081 4.84642 28.3118 4.84211 28.3152C4.83172 28.3234 4.82141 28.3315 4.81161 28.3405C4.80493 28.3465 4.79892 28.3529 4.79253 28.3592C4.78571 28.366 4.77873 28.3726 4.7722 28.3798C4.76366 28.3892 4.75587 28.3991 4.74808 28.409C4.74437 28.4137 4.74028 28.4182 4.73672 28.4231C4.72641 28.4369 4.71698 28.4512 4.708 28.4658C4.70711 28.4673 4.70607 28.4686 4.70518 28.47C4.7051 28.4702 4.70503 28.4703 4.70496 28.4705C4.68529 28.5033 4.66903 28.5377 4.65634 28.5735C4.65085 28.5889 4.6464 28.6043 4.64239 28.62C4.6418 28.6222 4.64098 28.6243 4.64046 28.6265C4.6369 28.6408 4.63423 28.6552 4.63178 28.6696C4.63111 28.6735 4.63014 28.6773 4.62962 28.6812C4.62777 28.6934 4.62688 28.7056 4.62584 28.7179C4.62532 28.7243 4.62443 28.7308 4.62413 28.7372C4.62369 28.7465 4.62391 28.7557 4.62398 28.765C4.62391 28.7746 4.62361 28.7842 4.62413 28.7939C4.62443 28.8 4.62525 28.8061 4.62576 28.8123C4.6268 28.8248 4.62777 28.8373 4.62955 28.8498C4.63014 28.8532 4.63096 28.8566 4.63155 28.8601C4.634 28.8749 4.63675 28.8898 4.64046 28.9045C4.64061 28.9053 4.64091 28.9059 4.64105 28.9066C4.64788 28.9332 4.65709 28.9595 4.66785 28.9855C4.67104 28.9932 4.67386 29.0011 4.67735 29.0086C4.67831 29.0106 4.6795 29.0125 4.68039 29.0144C4.68789 29.0299 4.69583 29.0451 4.70459 29.0599C4.70481 29.0602 4.70488 29.0605 4.7051 29.0608C4.70577 29.0619 4.70659 29.0628 4.70726 29.0639C4.71839 29.0823 4.73086 29.0999 4.74422 29.1172C4.74815 29.1222 4.75223 29.1272 4.75632 29.1321C4.76723 29.1452 4.77873 29.1578 4.79098 29.1701C4.79543 29.1746 4.79981 29.1793 4.80441 29.1837C4.82014 29.1985 4.83662 29.2126 4.85428 29.2257C4.85993 29.2298 4.86594 29.2334 4.87173 29.2373C4.88175 29.2442 4.89147 29.2513 4.90208 29.2576L9.68423 32.1271L9.1215 32.6898C8.89728 32.914 8.89728 33.2776 9.1215 33.5017C9.23364 33.6138 9.3806 33.6699 9.52748 33.6699C9.67436 33.6699 9.82131 33.6139 9.93345 33.5017L10.4962 32.939L13.3626 37.7161C13.3634 37.7175 13.3642 37.7188 13.365 37.7202L13.3656 37.7211C13.3659 37.7216 13.3664 37.7221 13.3667 37.7227C13.3783 37.7418 13.3912 37.7602 13.4051 37.778C13.4088 37.7827 13.4125 37.7873 13.4163 37.7919C13.4275 37.8054 13.4395 37.8185 13.4521 37.8311C13.4563 37.8353 13.4603 37.8397 13.4646 37.8438C13.4805 37.8587 13.4971 37.873 13.515 37.8862C13.5202 37.89 13.5257 37.8932 13.5311 37.8969C13.5415 37.9041 13.5516 37.9115 13.5625 37.9181C13.5648 37.9195 13.5674 37.9204 13.5697 37.9217C13.5838 37.9299 13.5982 37.9368 13.6128 37.9437C13.6218 37.9479 13.6305 37.9527 13.6396 37.9564C13.6523 37.9616 13.6655 37.9656 13.6785 37.9699C13.6896 37.9735 13.7006 37.9778 13.7118 37.9807C13.7231 37.9837 13.7347 37.9854 13.746 37.9877C13.7589 37.9902 13.7718 37.9935 13.7847 37.9951C13.8003 37.9971 13.8161 37.9975 13.8319 37.9983C13.8404 37.9986 13.8489 38 13.8574 38C13.8576 38 13.8578 37.9999 13.8579 37.9999C13.8581 37.9999 13.8583 38 13.8584 38C13.867 38 13.8755 37.9986 13.884 37.9983C13.8997 37.9975 13.9155 37.9971 13.931 37.9951C13.9441 37.9935 13.957 37.9903 13.97 37.9876C13.9814 37.9854 13.9928 37.9837 14.004 37.9808C14.0153 37.9778 14.0264 37.9735 14.0376 37.9698C14.0505 37.9655 14.0634 37.9616 14.0761 37.9564C14.0854 37.9526 14.0944 37.9478 14.1036 37.9434C14.1178 37.9367 14.1321 37.9298 14.1457 37.9218C14.1483 37.9204 14.1508 37.9194 14.1533 37.918C14.1647 37.9112 14.1753 37.9036 14.186 37.8961C14.1908 37.8927 14.1958 37.8898 14.2005 37.8863C14.2186 37.8729 14.2353 37.8586 14.2513 37.8435C14.2554 37.8396 14.2594 37.8353 14.2634 37.8313C14.2761 37.8185 14.2882 37.8054 14.2996 37.7916C14.3033 37.787 14.3071 37.7825 14.3107 37.7778C14.3245 37.7601 14.3375 37.7418 14.349 37.7227C14.3494 37.7221 14.3499 37.7216 14.3502 37.7209L14.3509 37.7197C14.3516 37.7185 14.3524 37.7172 14.3532 37.7159L15.9739 35.0144C15.9775 35.0085 15.9803 35.0023 15.9836 34.9963C15.9885 34.9875 15.9934 34.9787 15.9978 34.9695C16.0021 34.9606 16.006 34.9516 16.0098 34.9424C16.0131 34.9344 16.0167 34.9265 16.0196 34.9184C16.0233 34.9085 16.0265 34.8986 16.0295 34.8886C16.0319 34.8808 16.0344 34.873 16.0365 34.8651C16.0391 34.8551 16.0413 34.845 16.0435 34.8349C16.0452 34.8267 16.0469 34.8183 16.0482 34.81C16.0497 34.8004 16.0508 34.7908 16.0518 34.7812C16.0528 34.772 16.0538 34.7628 16.0544 34.7536C16.0549 34.7447 16.055 34.7358 16.0551 34.7269C16.0553 34.7174 16.0553 34.7075 16.055 34.6975C16.0546 34.6891 16.0538 34.6806 16.0532 34.6722C16.0524 34.6621 16.0515 34.652 16.0501 34.6418C16.0489 34.633 16.0472 34.6242 16.0456 34.6154C16.0438 34.6059 16.0422 34.5965 16.0399 34.587C16.0375 34.5771 16.0346 34.5674 16.0317 34.5576C16.0298 34.551 16.0284 34.5444 16.0262 34.5379L15.0555 31.627L31.5821 15.1004C31.583 15.0995 31.5839 15.0988 31.5848 15.0979C33.356 13.3267 33.3764 9.96326 33.3764 9.82091C33.3765 9.50385 33.1194 9.24683 32.8024 9.24683ZM6.07444 12.4618L6.99676 11.5396L23.0191 15.5445L17.5903 20.9733L6.07444 12.4618ZM30.7747 14.284C30.7741 14.2847 30.7734 14.2852 30.7727 14.2858L13.9926 31.066C13.9908 31.0679 13.9892 31.07 13.9873 31.0719C13.9794 31.08 13.9721 31.0884 13.9647 31.0969C13.9592 31.1032 13.9537 31.1095 13.9485 31.1159C13.9428 31.1231 13.9376 31.1306 13.9322 31.1381C13.9262 31.1464 13.9203 31.1547 13.9148 31.1632C13.911 31.1691 13.9077 31.1752 13.9041 31.1813C13.898 31.1916 13.8921 31.2018 13.8867 31.2124C13.8841 31.2175 13.8818 31.223 13.8792 31.2283C13.8739 31.2397 13.8686 31.2512 13.864 31.2628C13.8617 31.2688 13.8599 31.2748 13.8577 31.2809C13.8538 31.292 13.8498 31.3031 13.8466 31.3144C13.8443 31.3224 13.8426 31.3306 13.8406 31.3387C13.8384 31.3481 13.8359 31.3575 13.8341 31.3671C13.8322 31.3773 13.8311 31.3877 13.8297 31.3982C13.8287 31.4058 13.8275 31.4133 13.8268 31.4211C13.8258 31.4325 13.8255 31.4439 13.8251 31.4554C13.825 31.4624 13.8245 31.4693 13.8245 31.4762C13.8246 31.4872 13.8254 31.4981 13.8261 31.5091C13.8266 31.5169 13.8269 31.5248 13.8278 31.5327C13.8288 31.542 13.8303 31.5515 13.8318 31.5608C13.8333 31.5705 13.8348 31.5802 13.8368 31.5898C13.8384 31.5975 13.8404 31.605 13.8423 31.6126C13.8452 31.624 13.8482 31.6353 13.8518 31.6465C13.8525 31.6488 13.853 31.6513 13.8538 31.6537L14.8531 34.6508L13.8575 36.3102L11.3326 32.1024L13.7221 29.7129C13.9465 29.4885 13.9465 29.125 13.7223 28.9008C13.498 28.6766 13.1346 28.6766 12.9104 28.9008L10.521 31.2902L6.31313 28.7654L7.97259 27.7697L10.9696 28.7691C10.9715 28.7697 10.9734 28.7698 10.9753 28.7705C11.0009 28.7787 11.0268 28.7851 11.053 28.7896C11.0595 28.7907 11.0658 28.7915 11.0722 28.7924C11.0959 28.7956 11.1196 28.7978 11.1434 28.7981C11.146 28.7982 11.1486 28.7988 11.1513 28.7988C11.1542 28.7988 11.1571 28.7981 11.16 28.7981C11.1827 28.7977 11.2053 28.7958 11.228 28.7927C11.2351 28.7918 11.2422 28.7909 11.2492 28.7897C11.2736 28.7855 11.2978 28.7798 11.3216 28.7724C11.3265 28.7708 11.3311 28.7691 11.336 28.7674C11.3576 28.76 11.3789 28.7513 11.3997 28.7413C11.4036 28.7395 11.4077 28.7378 11.4115 28.7358C11.434 28.7244 11.4558 28.7112 11.4768 28.6966C11.4823 28.6928 11.4877 28.6887 11.4931 28.6847C11.5096 28.6724 11.5254 28.6593 11.5407 28.645C11.5454 28.6407 11.5505 28.6367 11.555 28.6321C11.5557 28.6315 11.5564 28.6309 11.5571 28.6303L28.3371 11.8502C29.375 10.8123 31.236 10.5146 32.1947 10.4292C32.1106 11.3865 31.8146 13.2422 30.7747 14.284Z"/>
</mask>
<path d="M32.8024 9.24683C32.66 9.24683 29.2965 9.26716 27.5253 11.0385L23.9659 14.5978L6.95995 10.3468C6.95587 10.3458 6.95164 10.3453 6.94755 10.3444C6.93664 10.3419 6.92573 10.3397 6.91475 10.3379C6.90644 10.3365 6.89812 10.3353 6.88989 10.3344C6.88002 10.3332 6.87014 10.3323 6.8602 10.3316C6.851 10.3309 6.84179 10.3305 6.83259 10.3303C6.82331 10.3301 6.81403 10.3302 6.80476 10.3305C6.79548 10.3308 6.7862 10.3312 6.77693 10.3318C6.76735 10.3326 6.75778 10.3337 6.7482 10.3349C6.73974 10.336 6.73128 10.337 6.72304 10.3385C6.71228 10.3404 6.70167 10.3427 6.69098 10.3451C6.68415 10.3467 6.6774 10.3482 6.67064 10.3501C6.65862 10.3533 6.64682 10.3571 6.63502 10.3611C6.62982 10.3629 6.62455 10.3646 6.61936 10.3666C6.60682 10.3714 6.5945 10.3766 6.58217 10.3822C6.5778 10.3842 6.57342 10.3862 6.56911 10.3883C6.55701 10.3942 6.54521 10.4006 6.53356 10.4074C6.52896 10.4101 6.52428 10.4127 6.51983 10.4155C6.50929 10.422 6.49898 10.4289 6.48881 10.4361C6.48302 10.4402 6.47738 10.4443 6.47174 10.4486C6.46328 10.4551 6.45496 10.4619 6.44687 10.4688C6.43982 10.4749 6.43299 10.4812 6.42624 10.4875C6.42253 10.491 6.41852 10.4941 6.41489 10.4978L4.79127 12.1212C4.78853 12.124 4.78623 12.127 4.78355 12.1298C4.77621 12.1374 4.76916 12.1452 4.76218 12.1533C4.75572 12.1608 4.74949 12.1684 4.74348 12.1762C4.74088 12.1795 4.73798 12.1826 4.73546 12.186C4.73271 12.1897 4.73041 12.1937 4.72774 12.1975C4.72143 12.2065 4.71535 12.2157 4.70956 12.225C4.70518 12.2321 4.70095 12.2392 4.69694 12.2464C4.69175 12.2557 4.68677 12.265 4.68217 12.2745C4.67831 12.2824 4.6746 12.2902 4.67111 12.2983C4.66725 12.3072 4.66362 12.3162 4.6602 12.3253C4.65694 12.334 4.65375 12.3429 4.65092 12.3518C4.64818 12.3604 4.64566 12.3689 4.64335 12.3775C4.64076 12.3871 4.63838 12.3967 4.6363 12.4063C4.63452 12.4146 4.63296 12.4229 4.63155 12.4313C4.62992 12.4411 4.62844 12.451 4.62732 12.4609C4.62636 12.4694 4.62562 12.4779 4.62502 12.4864C4.62435 12.4961 4.62384 12.5058 4.62361 12.5154C4.62346 12.5244 4.62354 12.5333 4.62376 12.5423C4.62406 12.5515 4.62443 12.5606 4.6251 12.5698C4.62576 12.5793 4.6268 12.5888 4.62792 12.5982C4.62903 12.6067 4.63014 12.6152 4.63163 12.6236C4.63326 12.6335 4.63526 12.6434 4.63757 12.6532C4.63927 12.6612 4.6412 12.6691 4.64335 12.677C4.64603 12.6869 4.64907 12.6968 4.65233 12.7066C4.65486 12.7144 4.65746 12.7221 4.66042 12.7298C4.66399 12.7392 4.66785 12.7486 4.67193 12.7579C4.67534 12.7658 4.67905 12.7737 4.68284 12.7815C4.68707 12.79 4.6916 12.7985 4.69627 12.8069C4.70087 12.8153 4.70577 12.8235 4.71082 12.8316C4.7155 12.8391 4.72039 12.8464 4.72537 12.8537C4.73138 12.8623 4.73761 12.8708 4.74407 12.8792C4.74912 12.8857 4.75439 12.8922 4.7598 12.8985C4.76693 12.9069 4.7742 12.915 4.78185 12.923C4.78504 12.9263 4.78786 12.9299 4.79112 12.9332C4.79409 12.9362 4.79743 12.9387 4.8004 12.9416C4.8076 12.9484 4.81495 12.9551 4.82252 12.9616C4.83046 12.9685 4.83855 12.9751 4.84671 12.9814C4.84983 12.9838 4.85265 12.9866 4.85584 12.9889L16.7692 21.7943L10.996 27.5675L8.08518 26.597C8.07947 26.595 8.07375 26.5939 8.06804 26.5922C8.05735 26.589 8.04659 26.5858 8.03568 26.5832C8.02633 26.581 8.01697 26.5794 8.00755 26.5776C7.99887 26.576 7.99033 26.5743 7.98165 26.5732C7.97074 26.5717 7.9599 26.5707 7.94906 26.5698C7.94157 26.5692 7.93422 26.5685 7.92672 26.5683C7.91529 26.5678 7.90394 26.5679 7.89251 26.5681C7.88531 26.5683 7.87826 26.5683 7.87106 26.5687C7.85978 26.5694 7.84857 26.5705 7.83736 26.5718C7.82994 26.5727 7.8226 26.5735 7.81525 26.5746C7.80434 26.5763 7.79358 26.5785 7.78281 26.5809C7.77524 26.5825 7.76782 26.5841 7.7604 26.5859C7.74949 26.5887 7.73888 26.5921 7.72826 26.5955C7.72114 26.5978 7.71409 26.5999 7.70704 26.6025C7.69568 26.6067 7.68447 26.6114 7.67342 26.6163C7.6674 26.6189 7.66154 26.6214 7.6556 26.6242C7.64299 26.6303 7.63081 26.637 7.61857 26.644C7.61523 26.6459 7.61167 26.6474 7.60833 26.6494L7.60083 26.6539C7.59986 26.6545 7.5989 26.655 7.59801 26.6556L4.90705 28.2702C4.90564 28.271 4.90431 28.2718 4.90297 28.2726L4.90201 28.2732C4.90052 28.2741 4.89934 28.2751 4.89785 28.276C4.88323 28.285 4.86883 28.2945 4.85495 28.3048C4.8505 28.3081 4.84642 28.3118 4.84211 28.3152C4.83172 28.3234 4.82141 28.3315 4.81161 28.3405C4.80493 28.3465 4.79892 28.3529 4.79253 28.3592C4.78571 28.366 4.77873 28.3726 4.7722 28.3798C4.76366 28.3892 4.75587 28.3991 4.74808 28.409C4.74437 28.4137 4.74028 28.4182 4.73672 28.4231C4.72641 28.4369 4.71698 28.4512 4.708 28.4658C4.70711 28.4673 4.70607 28.4686 4.70518 28.47C4.7051 28.4702 4.70503 28.4703 4.70496 28.4705C4.68529 28.5033 4.66903 28.5377 4.65634 28.5735C4.65085 28.5889 4.6464 28.6043 4.64239 28.62C4.6418 28.6222 4.64098 28.6243 4.64046 28.6265C4.6369 28.6408 4.63423 28.6552 4.63178 28.6696C4.63111 28.6735 4.63014 28.6773 4.62962 28.6812C4.62777 28.6934 4.62688 28.7056 4.62584 28.7179C4.62532 28.7243 4.62443 28.7308 4.62413 28.7372C4.62369 28.7465 4.62391 28.7557 4.62398 28.765C4.62391 28.7746 4.62361 28.7842 4.62413 28.7939C4.62443 28.8 4.62525 28.8061 4.62576 28.8123C4.6268 28.8248 4.62777 28.8373 4.62955 28.8498C4.63014 28.8532 4.63096 28.8566 4.63155 28.8601C4.634 28.8749 4.63675 28.8898 4.64046 28.9045C4.64061 28.9053 4.64091 28.9059 4.64105 28.9066C4.64788 28.9332 4.65709 28.9595 4.66785 28.9855C4.67104 28.9932 4.67386 29.0011 4.67735 29.0086C4.67831 29.0106 4.6795 29.0125 4.68039 29.0144C4.68789 29.0299 4.69583 29.0451 4.70459 29.0599C4.70481 29.0602 4.70488 29.0605 4.7051 29.0608C4.70577 29.0619 4.70659 29.0628 4.70726 29.0639C4.71839 29.0823 4.73086 29.0999 4.74422 29.1172C4.74815 29.1222 4.75223 29.1272 4.75632 29.1321C4.76723 29.1452 4.77873 29.1578 4.79098 29.1701C4.79543 29.1746 4.79981 29.1793 4.80441 29.1837C4.82014 29.1985 4.83662 29.2126 4.85428 29.2257C4.85993 29.2298 4.86594 29.2334 4.87173 29.2373C4.88175 29.2442 4.89147 29.2513 4.90208 29.2576L9.68423 32.1271L9.1215 32.6898C8.89728 32.914 8.89728 33.2776 9.1215 33.5017C9.23364 33.6138 9.3806 33.6699 9.52748 33.6699C9.67436 33.6699 9.82131 33.6139 9.93345 33.5017L10.4962 32.939L13.3626 37.7161C13.3634 37.7175 13.3642 37.7188 13.365 37.7202L13.3656 37.7211C13.3659 37.7216 13.3664 37.7221 13.3667 37.7227C13.3783 37.7418 13.3912 37.7602 13.4051 37.778C13.4088 37.7827 13.4125 37.7873 13.4163 37.7919C13.4275 37.8054 13.4395 37.8185 13.4521 37.8311C13.4563 37.8353 13.4603 37.8397 13.4646 37.8438C13.4805 37.8587 13.4971 37.873 13.515 37.8862C13.5202 37.89 13.5257 37.8932 13.5311 37.8969C13.5415 37.9041 13.5516 37.9115 13.5625 37.9181C13.5648 37.9195 13.5674 37.9204 13.5697 37.9217C13.5838 37.9299 13.5982 37.9368 13.6128 37.9437C13.6218 37.9479 13.6305 37.9527 13.6396 37.9564C13.6523 37.9616 13.6655 37.9656 13.6785 37.9699C13.6896 37.9735 13.7006 37.9778 13.7118 37.9807C13.7231 37.9837 13.7347 37.9854 13.746 37.9877C13.7589 37.9902 13.7718 37.9935 13.7847 37.9951C13.8003 37.9971 13.8161 37.9975 13.8319 37.9983C13.8404 37.9986 13.8489 38 13.8574 38C13.8576 38 13.8578 37.9999 13.8579 37.9999C13.8581 37.9999 13.8583 38 13.8584 38C13.867 38 13.8755 37.9986 13.884 37.9983C13.8997 37.9975 13.9155 37.9971 13.931 37.9951C13.9441 37.9935 13.957 37.9903 13.97 37.9876C13.9814 37.9854 13.9928 37.9837 14.004 37.9808C14.0153 37.9778 14.0264 37.9735 14.0376 37.9698C14.0505 37.9655 14.0634 37.9616 14.0761 37.9564C14.0854 37.9526 14.0944 37.9478 14.1036 37.9434C14.1178 37.9367 14.1321 37.9298 14.1457 37.9218C14.1483 37.9204 14.1508 37.9194 14.1533 37.918C14.1647 37.9112 14.1753 37.9036 14.186 37.8961C14.1908 37.8927 14.1958 37.8898 14.2005 37.8863C14.2186 37.8729 14.2353 37.8586 14.2513 37.8435C14.2554 37.8396 14.2594 37.8353 14.2634 37.8313C14.2761 37.8185 14.2882 37.8054 14.2996 37.7916C14.3033 37.787 14.3071 37.7825 14.3107 37.7778C14.3245 37.7601 14.3375 37.7418 14.349 37.7227C14.3494 37.7221 14.3499 37.7216 14.3502 37.7209L14.3509 37.7197C14.3516 37.7185 14.3524 37.7172 14.3532 37.7159L15.9739 35.0144C15.9775 35.0085 15.9803 35.0023 15.9836 34.9963C15.9885 34.9875 15.9934 34.9787 15.9978 34.9695C16.0021 34.9606 16.006 34.9516 16.0098 34.9424C16.0131 34.9344 16.0167 34.9265 16.0196 34.9184C16.0233 34.9085 16.0265 34.8986 16.0295 34.8886C16.0319 34.8808 16.0344 34.873 16.0365 34.8651C16.0391 34.8551 16.0413 34.845 16.0435 34.8349C16.0452 34.8267 16.0469 34.8183 16.0482 34.81C16.0497 34.8004 16.0508 34.7908 16.0518 34.7812C16.0528 34.772 16.0538 34.7628 16.0544 34.7536C16.0549 34.7447 16.055 34.7358 16.0551 34.7269C16.0553 34.7174 16.0553 34.7075 16.055 34.6975C16.0546 34.6891 16.0538 34.6806 16.0532 34.6722C16.0524 34.6621 16.0515 34.652 16.0501 34.6418C16.0489 34.633 16.0472 34.6242 16.0456 34.6154C16.0438 34.6059 16.0422 34.5965 16.0399 34.587C16.0375 34.5771 16.0346 34.5674 16.0317 34.5576C16.0298 34.551 16.0284 34.5444 16.0262 34.5379L15.0555 31.627L31.5821 15.1004C31.583 15.0995 31.5839 15.0988 31.5848 15.0979C33.356 13.3267 33.3764 9.96326 33.3764 9.82091C33.3765 9.50385 33.1194 9.24683 32.8024 9.24683ZM6.07444 12.4618L6.99676 11.5396L23.0191 15.5445L17.5903 20.9733L6.07444 12.4618ZM30.7747 14.284C30.7741 14.2847 30.7734 14.2852 30.7727 14.2858L13.9926 31.066C13.9908 31.0679 13.9892 31.07 13.9873 31.0719C13.9794 31.08 13.9721 31.0884 13.9647 31.0969C13.9592 31.1032 13.9537 31.1095 13.9485 31.1159C13.9428 31.1231 13.9376 31.1306 13.9322 31.1381C13.9262 31.1464 13.9203 31.1547 13.9148 31.1632C13.911 31.1691 13.9077 31.1752 13.9041 31.1813C13.898 31.1916 13.8921 31.2018 13.8867 31.2124C13.8841 31.2175 13.8818 31.223 13.8792 31.2283C13.8739 31.2397 13.8686 31.2512 13.864 31.2628C13.8617 31.2688 13.8599 31.2748 13.8577 31.2809C13.8538 31.292 13.8498 31.3031 13.8466 31.3144C13.8443 31.3224 13.8426 31.3306 13.8406 31.3387C13.8384 31.3481 13.8359 31.3575 13.8341 31.3671C13.8322 31.3773 13.8311 31.3877 13.8297 31.3982C13.8287 31.4058 13.8275 31.4133 13.8268 31.4211C13.8258 31.4325 13.8255 31.4439 13.8251 31.4554C13.825 31.4624 13.8245 31.4693 13.8245 31.4762C13.8246 31.4872 13.8254 31.4981 13.8261 31.5091C13.8266 31.5169 13.8269 31.5248 13.8278 31.5327C13.8288 31.542 13.8303 31.5515 13.8318 31.5608C13.8333 31.5705 13.8348 31.5802 13.8368 31.5898C13.8384 31.5975 13.8404 31.605 13.8423 31.6126C13.8452 31.624 13.8482 31.6353 13.8518 31.6465C13.8525 31.6488 13.853 31.6513 13.8538 31.6537L14.8531 34.6508L13.8575 36.3102L11.3326 32.1024L13.7221 29.7129C13.9465 29.4885 13.9465 29.125 13.7223 28.9008C13.498 28.6766 13.1346 28.6766 12.9104 28.9008L10.521 31.2902L6.31313 28.7654L7.97259 27.7697L10.9696 28.7691C10.9715 28.7697 10.9734 28.7698 10.9753 28.7705C11.0009 28.7787 11.0268 28.7851 11.053 28.7896C11.0595 28.7907 11.0658 28.7915 11.0722 28.7924C11.0959 28.7956 11.1196 28.7978 11.1434 28.7981C11.146 28.7982 11.1486 28.7988 11.1513 28.7988C11.1542 28.7988 11.1571 28.7981 11.16 28.7981C11.1827 28.7977 11.2053 28.7958 11.228 28.7927C11.2351 28.7918 11.2422 28.7909 11.2492 28.7897C11.2736 28.7855 11.2978 28.7798 11.3216 28.7724C11.3265 28.7708 11.3311 28.7691 11.336 28.7674C11.3576 28.76 11.3789 28.7513 11.3997 28.7413C11.4036 28.7395 11.4077 28.7378 11.4115 28.7358C11.434 28.7244 11.4558 28.7112 11.4768 28.6966C11.4823 28.6928 11.4877 28.6887 11.4931 28.6847C11.5096 28.6724 11.5254 28.6593 11.5407 28.645C11.5454 28.6407 11.5505 28.6367 11.555 28.6321C11.5557 28.6315 11.5564 28.6309 11.5571 28.6303L28.3371 11.8502C29.375 10.8123 31.236 10.5146 32.1947 10.4292C32.1106 11.3865 31.8146 13.2422 30.7747 14.284Z" fill="#293342"/>
<path d="M32.8024 9.24683C32.66 9.24683 29.2965 9.26716 27.5253 11.0385L23.9659 14.5978L6.95995 10.3468C6.95587 10.3458 6.95164 10.3453 6.94755 10.3444C6.93664 10.3419 6.92573 10.3397 6.91475 10.3379C6.90644 10.3365 6.89812 10.3353 6.88989 10.3344C6.88002 10.3332 6.87014 10.3323 6.8602 10.3316C6.851 10.3309 6.84179 10.3305 6.83259 10.3303C6.82331 10.3301 6.81403 10.3302 6.80476 10.3305C6.79548 10.3308 6.7862 10.3312 6.77693 10.3318C6.76735 10.3326 6.75778 10.3337 6.7482 10.3349C6.73974 10.336 6.73128 10.337 6.72304 10.3385C6.71228 10.3404 6.70167 10.3427 6.69098 10.3451C6.68415 10.3467 6.6774 10.3482 6.67064 10.3501C6.65862 10.3533 6.64682 10.3571 6.63502 10.3611C6.62982 10.3629 6.62455 10.3646 6.61936 10.3666C6.60682 10.3714 6.5945 10.3766 6.58217 10.3822C6.5778 10.3842 6.57342 10.3862 6.56911 10.3883C6.55701 10.3942 6.54521 10.4006 6.53356 10.4074C6.52896 10.4101 6.52428 10.4127 6.51983 10.4155C6.50929 10.422 6.49898 10.4289 6.48881 10.4361C6.48302 10.4402 6.47738 10.4443 6.47174 10.4486C6.46328 10.4551 6.45496 10.4619 6.44687 10.4688C6.43982 10.4749 6.43299 10.4812 6.42624 10.4875C6.42253 10.491 6.41852 10.4941 6.41489 10.4978L4.79127 12.1212C4.78853 12.124 4.78623 12.127 4.78355 12.1298C4.77621 12.1374 4.76916 12.1452 4.76218 12.1533C4.75572 12.1608 4.74949 12.1684 4.74348 12.1762C4.74088 12.1795 4.73798 12.1826 4.73546 12.186C4.73271 12.1897 4.73041 12.1937 4.72774 12.1975C4.72143 12.2065 4.71535 12.2157 4.70956 12.225C4.70518 12.2321 4.70095 12.2392 4.69694 12.2464C4.69175 12.2557 4.68677 12.265 4.68217 12.2745C4.67831 12.2824 4.6746 12.2902 4.67111 12.2983C4.66725 12.3072 4.66362 12.3162 4.6602 12.3253C4.65694 12.334 4.65375 12.3429 4.65092 12.3518C4.64818 12.3604 4.64566 12.3689 4.64335 12.3775C4.64076 12.3871 4.63838 12.3967 4.6363 12.4063C4.63452 12.4146 4.63296 12.4229 4.63155 12.4313C4.62992 12.4411 4.62844 12.451 4.62732 12.4609C4.62636 12.4694 4.62562 12.4779 4.62502 12.4864C4.62435 12.4961 4.62384 12.5058 4.62361 12.5154C4.62346 12.5244 4.62354 12.5333 4.62376 12.5423C4.62406 12.5515 4.62443 12.5606 4.6251 12.5698C4.62576 12.5793 4.6268 12.5888 4.62792 12.5982C4.62903 12.6067 4.63014 12.6152 4.63163 12.6236C4.63326 12.6335 4.63526 12.6434 4.63757 12.6532C4.63927 12.6612 4.6412 12.6691 4.64335 12.677C4.64603 12.6869 4.64907 12.6968 4.65233 12.7066C4.65486 12.7144 4.65746 12.7221 4.66042 12.7298C4.66399 12.7392 4.66785 12.7486 4.67193 12.7579C4.67534 12.7658 4.67905 12.7737 4.68284 12.7815C4.68707 12.79 4.6916 12.7985 4.69627 12.8069C4.70087 12.8153 4.70577 12.8235 4.71082 12.8316C4.7155 12.8391 4.72039 12.8464 4.72537 12.8537C4.73138 12.8623 4.73761 12.8708 4.74407 12.8792C4.74912 12.8857 4.75439 12.8922 4.7598 12.8985C4.76693 12.9069 4.7742 12.915 4.78185 12.923C4.78504 12.9263 4.78786 12.9299 4.79112 12.9332C4.79409 12.9362 4.79743 12.9387 4.8004 12.9416C4.8076 12.9484 4.81495 12.9551 4.82252 12.9616C4.83046 12.9685 4.83855 12.9751 4.84671 12.9814C4.84983 12.9838 4.85265 12.9866 4.85584 12.9889L16.7692 21.7943L10.996 27.5675L8.08518 26.597C8.07947 26.595 8.07375 26.5939 8.06804 26.5922C8.05735 26.589 8.04659 26.5858 8.03568 26.5832C8.02633 26.581 8.01697 26.5794 8.00755 26.5776C7.99887 26.576 7.99033 26.5743 7.98165 26.5732C7.97074 26.5717 7.9599 26.5707 7.94906 26.5698C7.94157 26.5692 7.93422 26.5685 7.92672 26.5683C7.91529 26.5678 7.90394 26.5679 7.89251 26.5681C7.88531 26.5683 7.87826 26.5683 7.87106 26.5687C7.85978 26.5694 7.84857 26.5705 7.83736 26.5718C7.82994 26.5727 7.8226 26.5735 7.81525 26.5746C7.80434 26.5763 7.79358 26.5785 7.78281 26.5809C7.77524 26.5825 7.76782 26.5841 7.7604 26.5859C7.74949 26.5887 7.73888 26.5921 7.72826 26.5955C7.72114 26.5978 7.71409 26.5999 7.70704 26.6025C7.69568 26.6067 7.68447 26.6114 7.67342 26.6163C7.6674 26.6189 7.66154 26.6214 7.6556 26.6242C7.64299 26.6303 7.63081 26.637 7.61857 26.644C7.61523 26.6459 7.61167 26.6474 7.60833 26.6494L7.60083 26.6539C7.59986 26.6545 7.5989 26.655 7.59801 26.6556L4.90705 28.2702C4.90564 28.271 4.90431 28.2718 4.90297 28.2726L4.90201 28.2732C4.90052 28.2741 4.89934 28.2751 4.89785 28.276C4.88323 28.285 4.86883 28.2945 4.85495 28.3048C4.8505 28.3081 4.84642 28.3118 4.84211 28.3152C4.83172 28.3234 4.82141 28.3315 4.81161 28.3405C4.80493 28.3465 4.79892 28.3529 4.79253 28.3592C4.78571 28.366 4.77873 28.3726 4.7722 28.3798C4.76366 28.3892 4.75587 28.3991 4.74808 28.409C4.74437 28.4137 4.74028 28.4182 4.73672 28.4231C4.72641 28.4369 4.71698 28.4512 4.708 28.4658C4.70711 28.4673 4.70607 28.4686 4.70518 28.47C4.7051 28.4702 4.70503 28.4703 4.70496 28.4705C4.68529 28.5033 4.66903 28.5377 4.65634 28.5735C4.65085 28.5889 4.6464 28.6043 4.64239 28.62C4.6418 28.6222 4.64098 28.6243 4.64046 28.6265C4.6369 28.6408 4.63423 28.6552 4.63178 28.6696C4.63111 28.6735 4.63014 28.6773 4.62962 28.6812C4.62777 28.6934 4.62688 28.7056 4.62584 28.7179C4.62532 28.7243 4.62443 28.7308 4.62413 28.7372C4.62369 28.7465 4.62391 28.7557 4.62398 28.765C4.62391 28.7746 4.62361 28.7842 4.62413 28.7939C4.62443 28.8 4.62525 28.8061 4.62576 28.8123C4.6268 28.8248 4.62777 28.8373 4.62955 28.8498C4.63014 28.8532 4.63096 28.8566 4.63155 28.8601C4.634 28.8749 4.63675 28.8898 4.64046 28.9045C4.64061 28.9053 4.64091 28.9059 4.64105 28.9066C4.64788 28.9332 4.65709 28.9595 4.66785 28.9855C4.67104 28.9932 4.67386 29.0011 4.67735 29.0086C4.67831 29.0106 4.6795 29.0125 4.68039 29.0144C4.68789 29.0299 4.69583 29.0451 4.70459 29.0599C4.70481 29.0602 4.70488 29.0605 4.7051 29.0608C4.70577 29.0619 4.70659 29.0628 4.70726 29.0639C4.71839 29.0823 4.73086 29.0999 4.74422 29.1172C4.74815 29.1222 4.75223 29.1272 4.75632 29.1321C4.76723 29.1452 4.77873 29.1578 4.79098 29.1701C4.79543 29.1746 4.79981 29.1793 4.80441 29.1837C4.82014 29.1985 4.83662 29.2126 4.85428 29.2257C4.85993 29.2298 4.86594 29.2334 4.87173 29.2373C4.88175 29.2442 4.89147 29.2513 4.90208 29.2576L9.68423 32.1271L9.1215 32.6898C8.89728 32.914 8.89728 33.2776 9.1215 33.5017C9.23364 33.6138 9.3806 33.6699 9.52748 33.6699C9.67436 33.6699 9.82131 33.6139 9.93345 33.5017L10.4962 32.939L13.3626 37.7161C13.3634 37.7175 13.3642 37.7188 13.365 37.7202L13.3656 37.7211C13.3659 37.7216 13.3664 37.7221 13.3667 37.7227C13.3783 37.7418 13.3912 37.7602 13.4051 37.778C13.4088 37.7827 13.4125 37.7873 13.4163 37.7919C13.4275 37.8054 13.4395 37.8185 13.4521 37.8311C13.4563 37.8353 13.4603 37.8397 13.4646 37.8438C13.4805 37.8587 13.4971 37.873 13.515 37.8862C13.5202 37.89 13.5257 37.8932 13.5311 37.8969C13.5415 37.9041 13.5516 37.9115 13.5625 37.9181C13.5648 37.9195 13.5674 37.9204 13.5697 37.9217C13.5838 37.9299 13.5982 37.9368 13.6128 37.9437C13.6218 37.9479 13.6305 37.9527 13.6396 37.9564C13.6523 37.9616 13.6655 37.9656 13.6785 37.9699C13.6896 37.9735 13.7006 37.9778 13.7118 37.9807C13.7231 37.9837 13.7347 37.9854 13.746 37.9877C13.7589 37.9902 13.7718 37.9935 13.7847 37.9951C13.8003 37.9971 13.8161 37.9975 13.8319 37.9983C13.8404 37.9986 13.8489 38 13.8574 38C13.8576 38 13.8578 37.9999 13.8579 37.9999C13.8581 37.9999 13.8583 38 13.8584 38C13.867 38 13.8755 37.9986 13.884 37.9983C13.8997 37.9975 13.9155 37.9971 13.931 37.9951C13.9441 37.9935 13.957 37.9903 13.97 37.9876C13.9814 37.9854 13.9928 37.9837 14.004 37.9808C14.0153 37.9778 14.0264 37.9735 14.0376 37.9698C14.0505 37.9655 14.0634 37.9616 14.0761 37.9564C14.0854 37.9526 14.0944 37.9478 14.1036 37.9434C14.1178 37.9367 14.1321 37.9298 14.1457 37.9218C14.1483 37.9204 14.1508 37.9194 14.1533 37.918C14.1647 37.9112 14.1753 37.9036 14.186 37.8961C14.1908 37.8927 14.1958 37.8898 14.2005 37.8863C14.2186 37.8729 14.2353 37.8586 14.2513 37.8435C14.2554 37.8396 14.2594 37.8353 14.2634 37.8313C14.2761 37.8185 14.2882 37.8054 14.2996 37.7916C14.3033 37.787 14.3071 37.7825 14.3107 37.7778C14.3245 37.7601 14.3375 37.7418 14.349 37.7227C14.3494 37.7221 14.3499 37.7216 14.3502 37.7209L14.3509 37.7197C14.3516 37.7185 14.3524 37.7172 14.3532 37.7159L15.9739 35.0144C15.9775 35.0085 15.9803 35.0023 15.9836 34.9963C15.9885 34.9875 15.9934 34.9787 15.9978 34.9695C16.0021 34.9606 16.006 34.9516 16.0098 34.9424C16.0131 34.9344 16.0167 34.9265 16.0196 34.9184C16.0233 34.9085 16.0265 34.8986 16.0295 34.8886C16.0319 34.8808 16.0344 34.873 16.0365 34.8651C16.0391 34.8551 16.0413 34.845 16.0435 34.8349C16.0452 34.8267 16.0469 34.8183 16.0482 34.81C16.0497 34.8004 16.0508 34.7908 16.0518 34.7812C16.0528 34.772 16.0538 34.7628 16.0544 34.7536C16.0549 34.7447 16.055 34.7358 16.0551 34.7269C16.0553 34.7174 16.0553 34.7075 16.055 34.6975C16.0546 34.6891 16.0538 34.6806 16.0532 34.6722C16.0524 34.6621 16.0515 34.652 16.0501 34.6418C16.0489 34.633 16.0472 34.6242 16.0456 34.6154C16.0438 34.6059 16.0422 34.5965 16.0399 34.587C16.0375 34.5771 16.0346 34.5674 16.0317 34.5576C16.0298 34.551 16.0284 34.5444 16.0262 34.5379L15.0555 31.627L31.5821 15.1004C31.583 15.0995 31.5839 15.0988 31.5848 15.0979C33.356 13.3267 33.3764 9.96326 33.3764 9.82091C33.3765 9.50385 33.1194 9.24683 32.8024 9.24683ZM6.07444 12.4618L6.99676 11.5396L23.0191 15.5445L17.5903 20.9733L6.07444 12.4618ZM30.7747 14.284C30.7741 14.2847 30.7734 14.2852 30.7727 14.2858L13.9926 31.066C13.9908 31.0679 13.9892 31.07 13.9873 31.0719C13.9794 31.08 13.9721 31.0884 13.9647 31.0969C13.9592 31.1032 13.9537 31.1095 13.9485 31.1159C13.9428 31.1231 13.9376 31.1306 13.9322 31.1381C13.9262 31.1464 13.9203 31.1547 13.9148 31.1632C13.911 31.1691 13.9077 31.1752 13.9041 31.1813C13.898 31.1916 13.8921 31.2018 13.8867 31.2124C13.8841 31.2175 13.8818 31.223 13.8792 31.2283C13.8739 31.2397 13.8686 31.2512 13.864 31.2628C13.8617 31.2688 13.8599 31.2748 13.8577 31.2809C13.8538 31.292 13.8498 31.3031 13.8466 31.3144C13.8443 31.3224 13.8426 31.3306 13.8406 31.3387C13.8384 31.3481 13.8359 31.3575 13.8341 31.3671C13.8322 31.3773 13.8311 31.3877 13.8297 31.3982C13.8287 31.4058 13.8275 31.4133 13.8268 31.4211C13.8258 31.4325 13.8255 31.4439 13.8251 31.4554C13.825 31.4624 13.8245 31.4693 13.8245 31.4762C13.8246 31.4872 13.8254 31.4981 13.8261 31.5091C13.8266 31.5169 13.8269 31.5248 13.8278 31.5327C13.8288 31.542 13.8303 31.5515 13.8318 31.5608C13.8333 31.5705 13.8348 31.5802 13.8368 31.5898C13.8384 31.5975 13.8404 31.605 13.8423 31.6126C13.8452 31.624 13.8482 31.6353 13.8518 31.6465C13.8525 31.6488 13.853 31.6513 13.8538 31.6537L14.8531 34.6508L13.8575 36.3102L11.3326 32.1024L13.7221 29.7129C13.9465 29.4885 13.9465 29.125 13.7223 28.9008C13.498 28.6766 13.1346 28.6766 12.9104 28.9008L10.521 31.2902L6.31313 28.7654L7.97259 27.7697L10.9696 28.7691C10.9715 28.7697 10.9734 28.7698 10.9753 28.7705C11.0009 28.7787 11.0268 28.7851 11.053 28.7896C11.0595 28.7907 11.0658 28.7915 11.0722 28.7924C11.0959 28.7956 11.1196 28.7978 11.1434 28.7981C11.146 28.7982 11.1486 28.7988 11.1513 28.7988C11.1542 28.7988 11.1571 28.7981 11.16 28.7981C11.1827 28.7977 11.2053 28.7958 11.228 28.7927C11.2351 28.7918 11.2422 28.7909 11.2492 28.7897C11.2736 28.7855 11.2978 28.7798 11.3216 28.7724C11.3265 28.7708 11.3311 28.7691 11.336 28.7674C11.3576 28.76 11.3789 28.7513 11.3997 28.7413C11.4036 28.7395 11.4077 28.7378 11.4115 28.7358C11.434 28.7244 11.4558 28.7112 11.4768 28.6966C11.4823 28.6928 11.4877 28.6887 11.4931 28.6847C11.5096 28.6724 11.5254 28.6593 11.5407 28.645C11.5454 28.6407 11.5505 28.6367 11.555 28.6321C11.5557 28.6315 11.5564 28.6309 11.5571 28.6303L28.3371 11.8502C29.375 10.8123 31.236 10.5146 32.1947 10.4292C32.1106 11.3865 31.8146 13.2422 30.7747 14.284Z" stroke="#293342" stroke-width="0.2" mask="url(#path-3-outside-1)"/>
<path d="M32.2848 35.7079C32.2831 35.697 32.2809 35.6862 32.2785 35.6754C32.2775 35.6713 32.2771 35.6671 32.276 35.6629L32.3272 35.6643L32.3272 35.6641L32.3265 35.6607C32.3263 35.6595 32.326 35.6577 32.3256 35.6557C32.3253 35.6542 32.325 35.6526 32.3246 35.651L32.3245 35.6508L28.6442 20.9277C28.5606 20.5933 28.2216 20.3901 27.8874 20.4737M32.2848 35.7079C32.2863 35.7165 32.2876 35.7252 32.2886 35.7338C32.2892 35.7385 32.2896 35.7431 32.2901 35.7478C32.2905 35.7525 32.2909 35.7572 32.2912 35.7619M32.2848 35.7079L32.3342 35.6998C32.3342 35.6997 32.3342 35.6997 32.3342 35.6996L32.3341 35.6994L32.2848 35.7079ZM32.2912 35.7619C32.2919 35.7718 32.2924 35.7818 32.2926 35.7917C32.2927 35.796 32.2927 35.8004 32.2927 35.8047C32.2926 35.8086 32.2925 35.8124 32.2924 35.8163C32.2922 35.8268 32.2918 35.8374 32.2909 35.8478C32.2903 35.8559 32.2894 35.8639 32.2884 35.8719C32.2872 35.8821 32.2858 35.8921 32.284 35.9022M32.2912 35.7619L32.341 35.7582C32.3418 35.7689 32.3424 35.7797 32.3426 35.7905L32.3426 35.7908C32.3428 35.8001 32.3426 35.8092 32.3424 35.8177C32.3422 35.8288 32.3417 35.8402 32.3408 35.8517L32.3408 35.852C32.34 35.8609 32.339 35.8696 32.3381 35.8779L32.338 35.878C32.3367 35.8884 32.3353 35.8995 32.3333 35.9109L32.284 35.9022M32.2912 35.7619L32.3411 35.7587C32.3404 35.7483 32.3394 35.7382 32.3383 35.7283L32.3383 35.7279L32.3204 35.968M32.284 35.9022C32.2825 35.9109 32.2806 35.9195 32.2787 35.9282C32.2766 35.9371 32.2746 35.946 32.2722 35.9549M32.284 35.9022L32.3333 35.9105C32.3317 35.9203 32.3296 35.9298 32.3278 35.9379L32.3275 35.9391L32.3274 35.9396L32.3266 35.943C32.3248 35.9506 32.3228 35.9594 32.3204 35.968M32.2722 35.9549C32.2706 35.9605 32.269 35.966 32.2672 35.9716C32.2659 35.9757 32.2645 35.9798 32.2631 35.984C32.2606 35.9914 32.2581 35.9989 32.2553 36.0062M32.2722 35.9549L32.3204 35.968M32.2722 35.9549L32.3203 35.9682L32.3204 35.968M32.2553 36.0062C32.2515 36.0166 32.2469 36.0269 32.2424 36.037C32.2395 36.0436 32.2365 36.05 32.2334 36.0564C32.2284 36.0666 32.223 36.0765 32.2173 36.0865M32.2553 36.0062L32.3022 36.0236C32.2977 36.0357 32.2925 36.0473 32.2881 36.0574C32.285 36.0643 32.2818 36.0713 32.2783 36.0783L32.2783 36.0784C32.2727 36.0898 32.2668 36.1007 32.2607 36.1113M32.2553 36.0062L32.302 36.0241C32.3047 36.0172 32.3071 36.0099 32.3092 36.0039C32.3096 36.0025 32.31 36.0013 32.3104 36.0001L32.3105 36L32.2607 36.1113M32.2173 36.0865C32.2137 36.0928 32.21 36.0991 32.2061 36.1055C32.2004 36.1145 32.1945 36.1233 32.1882 36.1322M32.2173 36.0865L32.2607 36.1114C32.2607 36.1113 32.2607 36.1113 32.2607 36.1113M32.2173 36.0865L32.2608 36.1112L32.2607 36.1113M32.1882 36.1322C32.1833 36.1392 32.1783 36.1461 32.173 36.153M32.1882 36.1322L32.2289 36.1612C32.229 36.1612 32.229 36.1611 32.2291 36.161M32.1882 36.1322L32.2293 36.1607C32.2292 36.1608 32.2292 36.1609 32.2291 36.161M32.173 36.153C32.17 36.1569 32.1668 36.1608 32.1637 36.1647C32.1609 36.1681 32.1581 36.1716 32.1553 36.175C32.1486 36.1829 32.1417 36.1906 32.1345 36.1982C32.1329 36.1998 32.1314 36.2015 32.1299 36.2032C32.1284 36.2049 32.1269 36.2066 32.1253 36.2083L30.5018 37.8317M32.173 36.153L32.2126 36.1835C32.2126 36.1835 32.2126 36.1835 32.2126 36.1835M32.173 36.153L32.2126 36.1835M30.5018 37.8317C30.5002 37.8334 30.4984 37.8349 30.4967 37.8364C30.4953 37.8376 30.4939 37.8388 30.4925 37.8401M30.5018 37.8317L30.5372 37.8671C30.5343 37.8699 30.5316 37.8723 30.53 37.8737L30.5271 37.8762M30.5018 37.8317L30.5372 37.8671L32.1606 36.2436L32.161 36.2432C32.1637 36.2405 32.166 36.2378 32.1674 36.2362L32.1702 36.2331L32.1707 36.2326C32.1785 36.2244 32.186 36.2161 32.1934 36.2074L32.194 36.2067L30.5271 37.8762M30.4925 37.8401C30.4853 37.847 30.4779 37.8537 30.4703 37.8602M30.4925 37.8401L30.527 37.8763C30.5271 37.8763 30.5271 37.8762 30.5271 37.8762M30.4925 37.8401L30.5271 37.8762M30.4703 37.8602C30.4625 37.867 30.4545 37.8736 30.4464 37.8798C30.4449 37.881 30.4435 37.8822 30.4421 37.8834C30.4404 37.8848 30.4388 37.8862 30.4371 37.8875C30.4361 37.8882 30.435 37.8888 30.434 37.8894C30.4327 37.8901 30.4314 37.8908 30.4301 37.8918C30.4071 37.9083 30.3834 37.9234 30.3587 37.9361C30.3565 37.9371 30.3544 37.9379 30.3523 37.939C30.3293 37.9505 30.3056 37.9601 30.2815 37.9684M30.4703 37.8602L30.5028 37.8982C30.5028 37.8982 30.5029 37.8981 30.503 37.898L30.4703 37.8602ZM30.2815 37.9684C30.2769 37.97 30.2721 37.9718 30.2674 37.9733C30.2428 37.981 30.2178 37.9869 30.1926 37.9911C30.1865 37.9922 30.1806 37.9929 30.1745 37.9937M30.2815 37.9684L30.298 38.0156C30.2979 38.0156 30.2979 38.0156 30.2978 38.0156C30.2973 38.0158 30.2965 38.0161 30.2956 38.0164C30.2921 38.0177 30.2865 38.0197 30.2823 38.021C30.2554 38.0295 30.2282 38.0359 30.2009 38.0404C30.197 38.0411 30.1931 38.0417 30.1894 38.0422C30.1864 38.0426 30.1836 38.043 30.1812 38.0433M30.2815 37.9684L30.1812 38.0433M30.1745 37.9937C30.1492 37.9972 30.1237 37.9996 30.0982 37.9997L30.0963 37.9998L30.0946 37.9997C30.0747 37.9997 30.0548 37.9985 30.035 37.9963M30.1745 37.9937L30.1812 38.0433M30.1745 37.9937L30.1813 38.0433L30.1812 38.0433M30.035 37.9963C30.0289 37.9957 30.0229 37.9946 30.0168 37.9937M30.035 37.9963L30.0301 38.0461C30.0299 38.0461 30.0298 38.0461 30.0296 38.046C30.0221 38.0453 30.013 38.0437 30.0096 38.0432L30.0168 37.9937M30.035 37.9963L29.8761 38.0095M30.0168 37.9937C30.0025 37.9917 29.9881 37.9894 29.974 37.9863C29.9686 37.9851 29.9634 37.9838 29.9581 37.9825C29.9566 37.9821 29.9552 37.9817 29.9537 37.9813C29.9404 37.9779 29.927 37.9741 29.9138 37.9697C29.907 37.9674 29.9003 37.9652 29.8937 37.9626M30.0168 37.9937L30.0099 38.0433C29.9947 38.0411 29.9792 38.0386 29.9635 38.0352L29.9633 38.0352C29.957 38.0338 29.9506 38.0321 29.9452 38.0308L29.9415 38.0298L29.9413 38.0298C29.927 38.0261 29.9125 38.0219 29.898 38.0171L29.8977 38.017L29.8949 38.0161C29.8892 38.0142 29.8827 38.0119 29.8761 38.0095M29.8937 37.9626C29.8806 37.9577 29.8677 37.9522 29.8549 37.9462M29.8937 37.9626L29.876 38.0094C29.876 38.0094 29.8761 38.0094 29.8761 38.0095M29.8937 37.9626L29.8761 38.0095M29.8549 37.9462C29.8532 37.9454 29.8515 37.9447 29.8498 37.9439C29.8452 37.9418 29.8406 37.9398 29.8361 37.9375C29.8223 37.9305 29.809 37.9227 29.7958 37.9146M29.8549 37.9462L29.8341 37.9917C29.8329 37.9911 29.8315 37.9905 29.83 37.9898C29.8252 37.9877 29.8192 37.985 29.8137 37.9822L29.8134 37.9821C29.7981 37.9743 29.7835 37.9657 29.7698 37.9573L29.7698 37.9573L29.7958 37.9146M29.8549 37.9462L29.8338 37.9916L29.7002 37.9083M29.7958 37.9146C29.7911 37.9117 29.7861 37.9091 29.7814 37.9061C29.7645 37.8949 29.7479 37.8828 29.7319 37.8696M29.7958 37.9146L29.7696 37.9572L29.7637 37.9538C29.7612 37.9523 29.7578 37.9503 29.7542 37.948L29.7541 37.9479C29.7355 37.9358 29.7176 37.9226 29.7002 37.9083M29.7319 37.8696C29.7283 37.8667 29.7249 37.8635 29.7215 37.8604C29.7195 37.8585 29.7175 37.8566 29.7154 37.8547M29.7319 37.8696L29.7002 37.9083M29.7319 37.8696L29.7002 37.9083L29.7002 37.9083M29.7154 37.8547C29.7134 37.8529 29.7113 37.8511 29.7093 37.8494C29.7026 37.8436 29.696 37.8379 29.6897 37.8316M29.7154 37.8547L29.6824 37.8923C29.6808 37.8909 29.6791 37.8894 29.6773 37.8879C29.6705 37.882 29.6621 37.8746 29.6544 37.8669M29.7154 37.8547L29.6821 37.892C29.6825 37.8924 29.6834 37.8932 29.6845 37.8943L29.6544 37.8669M29.6897 37.8316C29.6887 37.8306 29.6878 37.8295 29.6869 37.8285C29.6861 37.8276 29.6853 37.8267 29.6844 37.8258C29.6809 37.8221 29.6775 37.8183 29.6741 37.8144C29.6723 37.8124 29.6705 37.8104 29.6687 37.8083M29.6897 37.8316L29.6544 37.8669M29.6897 37.8316L29.6544 37.8669M29.6687 37.8083C29.6588 37.7973 29.6493 37.7861 29.6404 37.7745C29.6383 37.7718 29.6359 37.7695 29.634 37.7668L21.8126 27.1849C21.6242 26.9299 21.6781 26.5704 21.9331 26.382M29.6687 37.8083L29.6315 37.8418M29.6687 37.8083L29.6315 37.8418L29.6315 37.8418M21.9331 26.382L21.9034 26.3418C22.1805 26.137 22.5714 26.1955 22.7762 26.4727M21.9331 26.382L21.9034 26.3418C21.6262 26.5466 21.5676 26.9374 21.7724 27.2146L29.5934 37.7961C29.5935 37.7962 29.5936 37.7963 29.5937 37.7964M21.9331 26.382L29.5937 37.7964M22.7762 26.4727L22.736 26.5024L22.7762 26.4727L22.7762 26.4727ZM22.7762 26.4727L30.1666 36.4718L31.0278 35.6107L27.4333 21.2305C27.3497 20.896 27.553 20.5572 27.8874 20.4737M27.8874 20.4737L27.8996 20.5222L27.8874 20.4737C27.8874 20.4737 27.8874 20.4737 27.8874 20.4737ZM29.5937 37.7964C29.5961 37.7997 29.5984 37.8024 29.5995 37.8037L29.5996 37.8037C29.6005 37.8048 29.6009 37.8052 29.6009 37.8053L29.5937 37.7964ZM29.6315 37.8418C29.6326 37.843 29.6339 37.8445 29.6354 37.8461C29.6392 37.8504 29.6439 37.8558 29.6484 37.8604L29.6495 37.8617C29.6503 37.8626 29.6521 37.8647 29.6544 37.8669L29.6315 37.8418ZM32.2126 36.1835C32.2183 36.1761 32.2238 36.1686 32.2291 36.161M32.2126 36.1835L32.2291 36.161" fill="#293342" stroke="#293342" stroke-width="0.1"/>
</g>
<defs>
<clipPath id="clip0">
<rect width="38" height="38" fill="white"/>
</clipPath>
</defs>
</svg>
