<svg width="28" height="28" viewBox="0 0 28 28" fill="none" xmlns="http://www.w3.org/2000/svg">
<path d="M1.12997 25.7613L1.05926 25.832L1.12997 25.9027L2.09745 26.8702L2.16816 26.9409L2.23887 26.8702L26.8704 2.23862L26.9412 2.16791L26.8704 2.0972L25.903 1.12973L25.8323 1.05902L25.7616 1.12973L1.12997 25.7613Z" fill="#293342" stroke="#293342" stroke-width="0.2"/>
<path d="M5.10526 9.31053C7.42454 9.31053 9.31053 7.42454 9.31053 5.10526C9.31053 2.78598 7.42454 0.9 5.10526 0.9C2.78598 0.9 0.9 2.78598 0.9 5.10526C0.9 7.42454 2.78598 9.31053 5.10526 9.31053ZM5.10526 2.46842C6.5594 2.46842 7.74211 3.65112 7.74211 5.10526C7.74211 6.5594 6.5594 7.74211 5.10526 7.74211C3.65112 7.74211 2.46842 6.5594 2.46842 5.10526C2.46842 3.65112 3.65112 2.46842 5.10526 2.46842Z" fill="#293342" stroke="#293342" stroke-width="0.2"/>
<path d="M22.8948 18.6896C20.5755 18.6896 18.6896 20.5755 18.6896 22.8948C18.6896 25.2141 20.5755 27.1001 22.8948 27.1001C25.2141 27.1001 27.1001 25.2141 27.1001 22.8948C27.1001 20.5755 25.2141 18.6896 22.8948 18.6896ZM22.8948 25.5317C21.4407 25.5317 20.258 24.349 20.258 22.8948C20.258 21.4407 21.4407 20.258 22.8948 20.258C24.349 20.258 25.5317 21.4407 25.5317 22.8948C25.5317 24.349 24.349 25.5317 22.8948 25.5317Z" fill="#293342" stroke="#293342" stroke-width="0.2"/>
</svg>
