<svg width="24" height="31" viewBox="0 0 24 31" fill="none" xmlns="http://www.w3.org/2000/svg">
<path d="M19.5689 3.76865L19.569 3.76869C20.321 4.52026 20.9107 5.39513 21.3226 6.36868C21.7483 7.3757 21.9648 8.44678 21.9648 9.55145C21.9648 10.6561 21.7483 11.7272 21.3225 12.7343C20.9107 13.7078 20.321 14.5827 19.569 15.3343L19.5689 15.3343C18.8178 16.0859 17.9434 16.6755 16.9694 17.0875C15.9624 17.5131 14.8917 17.7287 13.7866 17.7287H4.33513L4.33513 1.37369L13.7847 1.37369H13.7866C14.8917 1.37369 15.9623 1.58978 16.9694 2.01547C17.9434 2.42734 18.8178 3.01701 19.5689 3.76865ZM13.7866 19.2029C19.1165 19.2029 23.438 14.8819 23.438 9.55145C23.438 4.22101 19.1165 -0.1 13.7866 -0.1H13.7866H13.7866H13.7865H13.7865H13.7865H13.7865H13.7865H13.7865H13.7865H13.7865H13.7865H13.7864H13.7864H13.7864H13.7864H13.7864H13.7864H13.7864H13.7864H13.7864H13.7864H13.7863H13.7863H13.7863H13.7863H13.7863H13.7863H13.7863H13.7863H13.7863H13.7863H13.7863H13.7862H13.7862H13.7862H13.7862H13.7862H13.7862H13.7862H13.7862H13.7862H13.7862H13.7862H13.7862H13.7861H13.7861H13.7861H13.7861H13.7861H13.7861H13.7861H13.7861H13.7861H13.7861H13.7861H13.7861H13.7861H13.786H13.786H13.786H13.786H13.786H13.786H13.786H13.786H13.786H13.786H13.7859H13.7859H13.7859H13.7859H13.7859H13.7859H13.7859H13.7859H13.7859H13.7859H13.7858H13.7858H13.7858H13.7858H13.7858H13.7858H13.7858H13.7858H13.7858H13.7858H13.7858H13.7858H13.7857H13.7857H13.7857H13.7857H13.7857H13.7857H13.7857H13.7857H13.7857H13.7857H13.7857H13.7857H13.7856H13.7856H13.7856H13.7856H13.7856H13.7856H13.7856H13.7856H13.7856H13.7856H13.7856H13.7856H13.7855H13.7855H13.7855H13.7855H13.7855H13.7855H13.7855H13.7855H13.7855H13.7855H13.7855H13.7855H13.7854H13.7854H13.7854H13.7854H13.7854H13.7854H13.7854H13.7854H13.7854H13.7854H13.7854H13.7853H13.7853H13.7853H13.7853H13.7853H13.7853H13.7853H13.7853H13.7853H13.7853H13.7853H13.7852H13.7852H13.7852H13.7852H13.7852H13.7852H13.7852H13.7852H13.7852H13.7852H13.7851H13.7851H13.7851H13.7851H13.7851H13.7851H13.7851H13.7851H13.7851H13.7851H13.7851H13.7851H13.7851H13.785H13.785H13.785H13.785H13.785H13.785H13.785H13.785H13.785H13.785H13.785H13.785H13.7849H13.7849H13.7849H13.7849H13.7849H13.7849H13.7849H13.7849H13.7849H13.7849H13.7849H13.7848H13.7848H13.7848H13.7848H13.7848H13.7848H13.7848H13.7848H13.7848H13.7848H13.7847H13.7847L3.59805 -0.1C3.19105 -0.1 2.86192 0.229801 2.86192 0.636604L2.86192 17.7287H1.05163C0.644634 17.7287 0.314551 18.059 0.314551 18.4668C0.314551 18.8728 0.644829 19.2029 1.05163 19.2029H2.86192L2.86192 21.5493H1.05163C0.644634 21.5493 0.314551 21.8796 0.314551 22.2873C0.314551 22.6934 0.644829 23.0235 1.05163 23.0235H2.86192L2.86192 29.9285C2.86192 30.3344 3.19112 30.6646 3.59805 30.6646C4.00479 30.6646 4.33513 30.3345 4.33513 29.9285V23.0235H15.0598C15.4666 23.0235 15.7969 22.6934 15.7969 22.2873C15.7969 21.8797 15.4668 21.5493 15.0598 21.5493H4.33513L4.33513 19.2029H13.7866Z" fill="#293342" stroke="#293342" stroke-width="0.2"/>
</svg>
